<svg viewBox="0 0 537.18 89.59" xmlns="http://www.w3.org/2000/svg" data-name="Layer 2" id="Layer_2"><defs><style> .cls-1 { fill: #55575b; } </style></defs><g data-name="Livello 1" id="Livello_1"><g><path d="M239.4,32.34h25.29l-16.27,25.05h-25.29l16.27-25.05ZM299,23.99c0-4.61-3.74-8.35-8.35-8.35h-57.66c-9.21.08-17.14,5.06-21.48,12.45-.04.06-21.75,33.5-21.75,33.5h0c-.73,1.19-1.03,2.65-1.03,4.17,0,4.61,3.74,8.35,8.35,8.35h57.66c9.21-.08,17.24-5.06,21.58-12.44.04-.06,21.87-33.78,21.87-33.78h0c.62-1.17.81-2.49.82-3.9" class="cls-1"></path><polygon points="362.37 15.63 328.95 15.63 311.82 15.63 300.97 32.34 318.1 32.34 290.97 74.11 321.61 74.11 348.74 32.34 365.88 32.34 376.71 15.63 362.37 15.63" class="cls-1"></polygon><path d="M185.83,15.62h-30.61s-29.96,45.99-29.96,45.99c-.71,1.23-1.08,2.67-1.08,4.19,0,4.61,3.76,8.3,8.37,8.3h43.33l10.83-16.65-28.12.05,27.23-41.88Z" class="cls-1"></path><path d="M78.87,44.57l-27.59,13.29-15.42-13.29,27.59-13.29,15.42,13.29ZM114.28,31.28L77.86,0,12.18,31.28l15.42,13.29L0,57.86l36.64,31.73,65.35-31.73-15.3-13.29,27.59-13.29Z" class="cls-1"></path><polygon points="435.34 15.63 401.93 15.63 384.79 15.63 373.94 32.34 391.08 32.34 363.95 74.11 394.59 74.11 421.72 32.34 438.86 32.34 449.69 15.63 435.34 15.63" class="cls-1"></polygon><path d="M477.58,32.34h25.29l-16.27,25.05h-25.29l16.27-25.05ZM537.18,23.99c0-4.61-3.74-8.35-8.35-8.35h-57.66c-9.21.08-17.14,5.06-21.48,12.45-.04.06-21.75,33.5-21.75,33.5h0c-.73,1.19-1.03,2.65-1.03,4.17,0,4.61,3.74,8.35,8.35,8.35h57.66c9.21-.08,17.24-5.06,21.58-12.44.04-.06,21.87-33.78,21.87-33.78h0c.62-1.17.81-2.49.82-3.9" class="cls-1"></path></g></g></svg>
