<svg xmlns="http://www.w3.org/2000/svg" fill="none" viewBox="0 0 263 36" height="36" width="263"><g clip-path="url(#clip0_1_37)"><path fill="#313131" d="M82.95 21.85C82.95 16.02 73.75 16.76 73.75 13.84C73.75 12.86 74.84 12.01 76.6 12.01C78.08 12.01 79.66 12.78 81.41 13.73L82.57 10.85C80.32 9.16 78.7 8.5 76.49 8.5C72.8 8.5 69.74 10.82 69.74 14.09C69.74 20.31 78.95 19.15 78.95 22.28C78.95 23.62 77.19 24.25 75.89 24.25C74.34 24.25 72.76 23.62 70.37 22.39L69.95 25.69C71.99 27.09 73.67 27.8 75.82 27.8C79.51 27.8 82.95 25.69 82.95 21.86M89.78 0H93.68V27.34H89.78V0ZM105.21 15.39C106.05 13.04 107.92 12.26 109.5 12.26C111.92 12.26 113.33 13.6 113.33 15.39H105.21ZM104.68 18.62H117.54C118.49 13.03 114.59 8.61 109.46 8.61C104.33 8.61 100.43 12.93 100.43 18.24C100.43 23.55 103.94 27.73 109.88 27.73C112.76 27.73 115.47 26.29 116.98 24.43L114.94 21.97C113.92 22.85 112.31 24.08 110.23 24.08C106.4 24.08 104.5 21.13 104.68 18.63M128.59 15.39C129.44 13.04 131.3 12.26 132.88 12.26C135.3 12.26 136.71 13.6 136.71 15.39H128.59ZM128.06 18.62H140.92C141.87 13.03 137.97 8.61 132.84 8.61C127.71 8.61 123.81 12.93 123.81 18.24C123.81 23.55 127.32 27.73 133.26 27.73C136.14 27.73 138.85 26.29 140.36 24.43L138.32 21.97C137.3 22.85 135.68 24.08 133.61 24.08C129.78 24.08 127.88 21.13 128.06 18.63M164.34 18.17C164.34 12.86 160.83 8.61 156.47 8.61C154.12 8.61 152.04 9.8 150.6 11.77L149.13 8.99H147.79V35.13H151.69V25.82C153.02 27.01 154.68 27.72 156.47 27.72C160.83 27.72 164.34 23.47 164.34 18.16M160.27 18.17C160.27 21.4 158.37 24.07 155.98 24.07C153.59 24.07 151.69 21.4 151.69 18.17C151.69 14.94 153.62 12.27 155.98 12.27C158.34 12.27 160.27 14.94 160.27 18.17ZM174.65 35.13L185.19 8.99H181.04L176.97 19.18L172.86 8.99H168.71L174.89 24.27L170.5 35.13H174.65ZM207.73 18.17C207.73 12.86 204.22 8.61 199.86 8.61C197.51 8.61 195.43 9.8 193.99 11.77L192.51 8.99H191.17V35.13H195.07V25.82C196.4 27.01 198.06 27.72 199.85 27.72C204.21 27.72 207.72 23.47 207.72 18.16M203.65 18.17C203.65 21.4 201.75 24.07 199.36 24.07C196.97 24.07 195.07 21.4 195.07 18.17C195.07 14.94 197 12.27 199.36 12.27C201.72 12.27 203.65 14.94 203.65 18.17ZM222.29 8.61C217.48 8.61 213.54 12.86 213.54 18.17C213.54 23.48 217.48 27.73 222.29 27.73C227.1 27.73 231.04 23.48 231.04 18.17C231.04 12.86 227.14 8.61 222.29 8.61ZM222.29 12.26C224.89 12.26 226.96 14.93 226.96 18.16C226.96 21.39 224.89 24.06 222.29 24.06C219.69 24.06 217.65 21.39 217.65 18.16C217.65 14.93 219.72 12.26 222.29 12.26ZM253.44 27.34V0H249.5V10.51C248.2 9.32 246.55 8.61 244.76 8.61C240.37 8.61 236.85 12.86 236.85 18.17C236.85 23.48 240.36 27.73 244.76 27.73C247.11 27.73 249.15 26.54 250.63 24.57L252.1 27.34H253.44ZM249.5 18.17C249.5 21.4 247.6 24.07 245.21 24.07C242.82 24.07 240.96 21.4 240.96 18.17C240.96 14.94 242.82 12.27 245.21 12.27C247.6 12.27 249.5 14.94 249.5 18.17Z" clip-rule="evenodd" fill-rule="evenodd"></path><path fill="#313131" d="M260.05 2.14C259.42 2.14 258.89 2.36 258.44 2.81C257.99 3.26 257.77 3.79 257.77 4.42C257.77 5.05 257.99 5.59 258.44 6.03C258.88 6.47 259.42 6.69 260.05 6.69C260.68 6.69 261.21 6.47 261.66 6.02C262.1 5.58 262.33 5.04 262.33 4.41C262.33 3.78 262.11 3.25 261.66 2.8C261.22 2.35 260.68 2.13 260.06 2.13M260.05 1.68C260.54 1.68 260.99 1.8 261.41 2.05C261.83 2.29 262.17 2.63 262.41 3.05C262.66 3.47 262.78 3.92 262.78 4.41C262.78 4.9 262.66 5.35 262.41 5.77C262.17 6.19 261.83 6.52 261.41 6.76C260.99 7 260.53 7.13 260.04 7.13C259.55 7.13 259.09 7.01 258.67 6.77C258.25 6.53 257.92 6.19 257.67 5.78C257.43 5.36 257.3 4.9 257.3 4.41C257.3 3.92 257.42 3.47 257.67 3.05C257.92 2.63 258.25 2.29 258.67 2.05C259.09 1.81 259.55 1.69 260.04 1.69M259.43 3.34V4.22H260.01C260.26 4.22 260.44 4.18 260.55 4.12C260.66 4.05 260.72 3.93 260.72 3.78C260.72 3.63 260.66 3.51 260.55 3.44C260.44 3.37 260.25 3.34 259.97 3.34H259.43ZM259.43 5.88H258.96V2.95H259.98C260.34 2.95 260.59 2.98 260.74 3.04C260.89 3.1 261.01 3.19 261.1 3.32C261.19 3.45 261.23 3.59 261.23 3.74C261.23 3.96 261.15 4.15 261 4.31C260.85 4.47 260.64 4.55 260.4 4.57C260.51 4.62 260.61 4.69 260.71 4.8C260.81 4.9 260.93 5.08 261.08 5.31L261.43 5.88H260.85L260.59 5.42C260.4 5.09 260.26 4.88 260.15 4.78C260.04 4.68 259.9 4.63 259.71 4.63H259.43V5.88Z" clip-rule="evenodd" fill-rule="evenodd"></path><path fill="#313131" d="M52.94 7.14C48.22 4.52 41.07 2.56 39.68 5.08C39.59 5.25 39.52 5.43 39.46 5.62C39.32 5.68 39.16 5.77 39.01 5.85C37.15 3.82 34.28 2.72 31.24 3.07C29.48 1.45 27.22 0.57 24.82 0.57C22.6 0.57 20.48 1.34 18.77 2.75C18.06 2.54 17.33 2.43 16.61 2.43C12.18 2.43 8.58 6.17 8.58 10.77C8.58 11.44 8.66 12.11 8.82 12.77C6.36 14.28 4.92 16.57 4.92 19.02C4.92 19.44 4.98 19.86 5.06 20.26C1.69 22.41 -0.389999 24.44 0.0600009 25.34C0.530001 26.26 3.52 25.72 7.35 24.17C9.27 25.94 12.16 27.06 15.39 27.06C16.7 27.06 17.97 26.88 19.19 26.51C20.96 28.39 23.64 29.5 26.49 29.5C29.77 29.5 32.76 28.05 34.45 25.72C36 26.99 37.84 27.68 39.75 27.68C41.66 27.68 43.45 26.99 44.93 25.82C48.96 27.29 52.22 27.53 52.89 26.2C53.53 24.95 51.68 22.66 48.48 20.39C48.8 19.29 48.99 18.12 48.99 16.89C48.99 16.77 48.98 16.64 48.97 16.52C52.54 17.91 55.32 17.56 56.47 15.5C57.87 12.98 57.65 9.75 52.93 7.14M45.29 5.9C46.12 5.9 46.79 6.57 46.79 7.4C46.79 8.23 46.12 8.9 45.29 8.9C45.1 8.9 44.93 8.86 44.76 8.8C44.31 8.59 43.97 8.19 43.87 7.68L43.8 7.28C43.86 6.51 44.5 5.91 45.28 5.91M34.99 23.41L33.97 22.31L33.31 23.66C32.19 25.97 29.51 27.46 26.49 27.46C23.99 27.46 21.68 26.43 20.32 24.7L19.86 24.12L19.17 24.37C17.98 24.8 16.7 25.02 15.39 25.02C10.74 25.02 6.96 22.34 6.96 19.04C6.96 17.14 8.28 15.32 10.49 14.19L11.28 13.78L10.99 12.94C10.75 12.24 10.62 11.51 10.62 10.79C10.62 7.32 13.3 4.5 16.6 4.5C17.28 4.5 17.97 4.63 18.63 4.88L19.23 5.11L19.7 4.67C21.1 3.36 22.92 2.63 24.82 2.63C26.84 2.63 28.74 3.43 30.16 4.88L30.54 5.26L31.07 5.17C33.54 4.75 35.91 5.54 37.42 7.12C36.4 8.11 35.39 9.43 34.66 10.8C33.02 13.89 33.41 16.04 34.73 16.74C36.05 17.44 37.82 16.51 39.46 13.43C40.01 12.4 40.48 11.25 40.8 10.16C42.1 12.1 44.17 14.06 46.54 15.37C46.65 15.43 46.75 15.48 46.86 15.54C46.92 15.99 46.95 16.44 46.95 16.9C46.95 21.72 43.73 25.64 39.76 25.64C38.01 25.64 36.31 24.85 34.99 23.42"></path><path fill="#313131" d="M45.29 8.29C45.78 8.29 46.18 7.89 46.18 7.4C46.18 6.91 45.78 6.51 45.29 6.51C44.8 6.51 44.4 6.91 44.4 7.4C44.4 7.89 44.8 8.29 45.29 8.29Z"></path></g><defs><clipPath id="clip0_1_37"><rect fill="white" height="35.13" width="262.78"></rect></clipPath></defs></svg>
